<svg xmlns="http://www.w3.org/2000/svg" width="42" height="42" viewBox="0 0 42 42" fill="none">
<circle cx="21" cy="21" r="21" fill="#A3CEFD"/>
<path d="M21 11C15.477 11 11 15.477 11 21C11 26.523 15.477 31 21 31C26.523 31 31 26.523 31 21C31 15.477 26.523 11 21 11Z" stroke="white" stroke-width="1.5" stroke-linecap="round" stroke-linejoin="round"/>
<path d="M13.2715 27.346C13.2715 27.346 15.5005 24.5 21.0005 24.5C26.5005 24.5 28.7305 27.346 28.7305 27.346M21.0005 21C21.7961 21 22.5592 20.6839 23.1218 20.1213C23.6844 19.5587 24.0005 18.7956 24.0005 18C24.0005 17.2044 23.6844 16.4413 23.1218 15.8787C22.5592 15.3161 21.7961 15 21.0005 15C20.2048 15 19.4418 15.3161 18.8792 15.8787C18.3166 16.4413 18.0005 17.2044 18.0005 18C18.0005 18.7956 18.3166 19.5587 18.8792 20.1213C19.4418 20.6839 20.2048 21 21.0005 21Z" stroke="white" stroke-width="1.5" stroke-linecap="round" stroke-linejoin="round"/>
</svg>